/* XPM */
static char *end[]={
"32 32 3 1",
". c None",
"# c #000000",
"a c #ffffff",
"................................",
"................................",
"................................",
"................................",
"................................",
"........#############...........",
"........#aaa#aaa#aa##...........",
"........#a###a#a#a#a#...........",
"........#aaa#a#a#a#a#...........",
"........#a###a#a#a#a#...........",
"........#aaa#a#a#aa##...........",
"........#############...........",
"................................",
".....###################........",
"......#aaaaaaaaaaaaaaa#.........",
".......#aaaaaaaaaaaaa#..........",
"........#aaaaaaaaaaa#...........",
".........#aaaaaaaaa#............",
"..........#aaaaaaa#.............",
"...........#aaaaa#..............",
"............#aaa#...............",
".............#a#................",
"......#################.........",
"......#aaaaaaaaaaaaaaa#.........",
"......#aaaaaaaaaaaaaaa#.........",
"......#################.........",
"................................",
"................................",
"................................",
"................................",
"................................",
"................................"};
