/* XPM */
static char *enter[]={
"32 32 3 1",
". c None",
"# c #000000",
"a c #ffffff",
"................................",
"................................",
"................................",
"................................",
"................................",
"...#####################........",
"...#aaa#aaa#aaa#aaa#aaa#........",
"...#a###a#a##a##a###a#a#........",
"...#aaa#a#a##a##aaa#aa##........",
"...#a###a#a##a##a###a#a#........",
"...#aaa#a#a##a##aaa#a#a#........",
"...#####################.####...",
".........................#aa#...",
".........................#aa#...",
".......#.................#aa#...",
"......##.................#aa#...",
".....#a#.................#aa#...",
"....#aa###################aa#...",
"...#aaaaaaaaaaaaaaaaaaaaaaaa#...",
"...#aaaaaaaaaaaaaaaaaaaaaaaa#...",
"....#aa######################...",
".....#a#........................",
"......##........................",
".......#........................",
"................................",
"................................",
"................................",
"................................",
"................................",
"................................",
"................................",
"................................"};
