/* XPM */
static char *exit[]={
"32 32 3 1",
". c None",
"# c #000000",
"a c #ffffff",
"................................",
"................................",
".........##.....................",
"........#a#.....................",
".......#aa#.....................",
"......#aaa##################....",
".....#aaaaaaaaaaaaaaaaaaaaa#....",
"....#aaaaaa###############a#....",
"...#aaaaaaa#aaa#a#a#a#aaa#a#....",
"..#aaaaaaaa#a###a#a#a##a##a#....",
".#aaaaaaaaa#a####a##a##a##a#....",
"#aaaaaaaaaa#aaa##a##a##a##a#....",
".#aaaaaaaaa#a####a##a##a##a#....",
"..#aaaaaaaa#a###a#a#a##a##a#....",
"...#aaaaaaa#aaa#a#a#a##a##a#....",
"....#aaaaaa###############a#....",
".....#aaaaaaaaaaaaaaaaaaaaa#....",
"......#aaa##################....",
".......#aa#.....................",
"........#a#.....................",
".........##.....................",
"................................",
"................................",
"................................",
"................................",
"................................",
"................................",
"................................",
"................................",
"................................",
"................................",
"................................"};
