/* XPM */
static char *home[]={
"32 32 3 1",
". c None",
"# c #000000",
"a c #ffffff",
"................................",
"................................",
"................................",
"......#################.........",
"......#aaaaaaaaaaaaaaa#.........",
"......#aaaaaaaaaaaaaaa#.........",
"......#################.........",
".............#a#................",
"............#aaa#...............",
"...........#aaaaa#..............",
"..........#aaaaaaa#.............",
".........#aaaaaaaaa#............",
"........#aaaaaaaaaaa#...........",
".......#aaaaaaaaaaaaa#..........",
"......#aaaaaaaaaaaaaaa#.........",
"......#################.........",
"................................",
"......#################.........",
"......#a#a##a##a#a#aaa#.........",
"......#a#a#a#a#aaa#a###.........",
"......#aaa#a#a#a#a#aaa#.........",
"......#a#a#a#a#a#a#a###.........",
"......#a#a##a##a#a#aaa#.........",
"......#################.........",
"................................",
"................................",
"................................",
"................................",
"................................",
"................................",
"................................",
"................................"};
