/* XPM */
static char *next[]={
"32 32 3 1",
". c None",
"# c #000000",
"a c #ffffff",
"................................",
"................................",
"................................",
"................................",
"................................",
"................................",
"................................",
"................................",
"................................",
".......#################........",
".......#aaa#aaa#a#a#aaa#........",
".......#a#a#a###a#a##a##........",
".......#a#a#aaa##a###a##........",
".......#a#a#a###a#a##a##........",
".......#a#a#aaa#a#a##a##........",
".......#################........",
"................................",
"............#######.............",
"............#aaaaa#.............",
"............#aaaaa#.............",
"............#aaaaa#.............",
"........#####aaaaa#####.........",
"........#aaaaaaaaaaaaa#.........",
".........#aaaaaaaaaaa#..........",
"..........#aaaaaaaaa#...........",
"...........#aaaaaaa#............",
"............#aaaaa#.............",
".............#aaa#..............",
"..............#a#...............",
"...............#................",
"................................",
"................................"};
