/* XPM */
static char *pageup[]={
"32 32 3 1",
". c None",
"# c #000000",
"a c #ffffff",
"................................",
"................................",
"................................",
"................................",
"...............#................",
"..............#a#...............",
".............#aaa#..............",
"............#aaaaa#.............",
"...........#aaaaaaa#............",
"..........#aaaaaaaaa#...........",
".........#aaaaaaaaaaa#..........",
"........#aaaaaaaaaaaaa#.........",
".......#aaaaaaaaaaaaaaa#........",
".......#################........",
"..............#a#...............",
".............#aaa#..............",
"............#aaaaa#.............",
"...........#aaaaaaa#............",
"..........#aaaaaaaaa#...........",
".........#aaaaaaaaaaa#..........",
"........#aaaaaaaaaaaaa#.........",
".......#aaaaaaaaaaaaaaa#........",
".......#################........",
"................................",
"...#########################....",
"...#aa###a###aa#aaa#a#a#aa##....",
"...#a#a#a#a#a###a###a#a#a#a#....",
"...#aa##aaa#a###aaa#a#a#aa##....",
"...#a###a#a#a#a#a###a#a#a###....",
"...#a###a#a##aa#aaa##a##a###....",
"...#########################....",
"................................"};
