/* XPM */
static char *pagedown[]={
"32 32 3 1",
"a c None",
". c #000000",
"# c #ffffff",
"................................",
"##...#...##.###.##...#..#.#.###.",
"#.#.#.#.#...#...#.#.#.#.#.#.#.#.",
"##..###.#...###.#.#.#.#.#.#.#.#.",
"#...#.#.#.#.#...#.#.#.#.###.#.#.",
"#...#.#..##.###.##...#..#.#.#.#.",
"................................",
"aaaaaaaaaaaaaaaaaaaaaaaaaaaaaaaa",
"aaaaaaa.................aaaaaaaa",
"aaaaaaa.###############.aaaaaaaa",
"aaaaaaaa.#############.aaaaaaaaa",
"aaaaaaaaa.###########.aaaaaaaaaa",
"aaaaaaaaaa.#########.aaaaaaaaaaa",
"aaaaaaaaaaa.#######.aaaaaaaaaaaa",
"aaaaaaaaaaaa.#####.aaaaaaaaaaaaa",
"aaaaaaaaaaaaa.###.aaaaaaaaaaaaaa",
"aaaaaaaaaaaaaa.#.aaaaaaaaaaaaaaa",
"aaaaaaa.................aaaaaaaa",
"aaaaaaa.###############.aaaaaaaa",
"aaaaaaaa.#############.aaaaaaaaa",
"aaaaaaaaa.###########.aaaaaaaaaa",
"aaaaaaaaaa.#########.aaaaaaaaaaa",
"aaaaaaaaaaa.#######.aaaaaaaaaaaa",
"aaaaaaaaaaaa.#####.aaaaaaaaaaaaa",
"aaaaaaaaaaaaa.###.aaaaaaaaaaaaaa",
"aaaaaaaaaaaaaa.#.aaaaaaaaaaaaaaa",
"aaaaaaaaaaaaaaa.aaaaaaaaaaaaaaaa",
"aaaaaaaaaaaaaaaaaaaaaaaaaaaaaaaa",
"aaaaaaaaaaaaaaaaaaaaaaaaaaaaaaaa",
"aaaaaaaaaaaaaaaaaaaaaaaaaaaaaaaa",
"aaaaaaaaaaaaaaaaaaaaaaaaaaaaaaaa",
"aaaaaaaaaaaaaaaaaaaaaaaaaaaaaaaa"};
