/* XPM */
static char *prev[]={
"32 32 3 1",
". c None",
"# c #000000",
"a c #ffffff",
"................................",
"..............#.................",
".............#a#................",
"............#aaa#...............",
"...........#aaaaa#..............",
"..........#aaaaaaa#.............",
".........#aaaaaaaaa#............",
"........#aaaaaaaaaaa#...........",
".......#aaaaaaaaaaaaa#..........",
".......#####aaaaa#####..........",
"...........#aaaaa#..............",
"...........#aaaaa#..............",
"...........#aaaaa#..............",
"...........#######..............",
"................................",
"......#################.........",
"......#aa##aa##aaa#a#a#.........",
"......#a#a#a#a#a###a#a#.........",
"......#aa##aa##aaa#a#a#.........",
"......#a###a#a#a###aaa#.........",
"......#a###a#a#aaa##a##.........",
"......#################.........",
"................................",
"................................",
"................................",
"................................",
"................................",
"................................",
"................................",
"................................",
"................................",
"................................"};
