/* XPM */
static char *end[]={
"16 16 3 1",
". c None",
"# c #000000",
"a c #ffffff",
"................",
"................",
"................",
"..############..",
"..#aaaaaaaaaa#..",
"...#aaaaaaaa#...",
"....#aaaaaa#....",
".....#aaaa#.....",
"......#aa#......",
".......##.......",
"..############..",
"..#aaaaaaaaaa#..",
"..############..",
"................",
"................",
"................"};
