/* XPM */
static char *enter[]={
"16 16 3 1",
". c None",
"# c #000000",
"a c #ffffff",
"................",
"................",
"................",
"................",
"............###.",
"............#a#.",
"....#.......#a#.",
"...##.......#a#.",
"..#a#########a#.",
".#aaaaaaaaaaaa#.",
"..#a###########.",
"...##...........",
"....#...........",
"................",
"................",
"................"};
