/* XPM */
static char *exit[]={
"16 16 3 1",
". c None",
"# c #000000",
"a c #ffffff",
"................",
"................",
"................",
"......#.........",
".....##.........",
"....#a#.........",
"...#aa#########.",
"..#aaa..aaaaaa#.",
".#aaaaaaaaaaaa#.",
"..#aaaaaaaaaaa#.",
"...#aa#########.",
"....#a#.........",
".....##.........",
"......#.........",
"................",
"................"};
