/* XPM */
static char *hand[]={
"16 16 3 1",
". c None",
"# c #000000",
"a c #ffffff",
"......#.........",
".....#a#........",
".....#a#........",
".....#a###......",
".....#a#a###....",
".....#a#a#a###..",
".##..#a#a#a#.###",
".#a###aaaaaa.#a#",
".#aaa#aaaaaa..a#",
"..#aaaaaaaaaaa##",
"...#a.aaaaaaaa#.",
"...##aaaaaaaa##.",
"....##aaaaaaa#..",
".....#aaaaaaa#..",
".....#########..",
"................"};
