/* XPM */
static char *home[]={
"16 16 3 1",
". c None",
"# c #000000",
"a c #ffffff",
"................",
"................",
"................",
"..############..",
"..#aaaaaaaaaa#..",
"..############..",
".......##.......",
"......#aa#......",
".....#aaa.#.....",
"....#aaaaaa#....",
"...#aaaaaaaa#...",
"..#aaaaaaaaaa#..",
"..############..",
"................",
"................",
"................"};
