/* XPM */
static char *next[]={
"16 16 3 1",
". c None",
"# c #000000",
"a c #ffffff",
"................",
"................",
".....#####......",
".....#aaa#......",
".....#aaa#......",
".....#aaa#......",
".#####aaa#####..",
".#aaaaaaaaaaa#..",
"..#aaaaaaaaa#...",
"...#aaaaaaa#....",
"....#aaaaa#.....",
".....#aaa#......",
"......#a#.......",
".......#........",
"................",
"................"};
