/* XPM */
static char *pagedown[]={
"16 16 3 1",
". c None",
"# c #000000",
"a c #ffffff",
"................",
"................",
"..###########...",
"...#aaaaaaa#....",
"....#aaaaa#.....",
".....#aaa#......",
"......#a#.......",
".......#........",
"..###########...",
"...#aaaaaaa#....",
"....#aaaaa#.....",
".....#aaa#......",
"......#a#.......",
".......#........",
"................",
"................"};
