/* XPM */
static char *pageup[]={
"16 16 3 1",
". c None",
"# c #000000",
"a c #ffffff",
"................",
"................",
".......#........",
"......#a#.......",
".....#aaa#......",
"....#aaaaa#.....",
"...#aaaaaaa#....",
"..#aaaaaaaaa#...",
".#############..",
"......#a#.......",
".....#aaa#......",
"....#aaaaa#.....",
"...#aaaaaaa#....",
"..#aaaaaaaaa#...",
".#############..",
"................"};
