/* XPM */
static char *prev[]={
"16 16 3 1",
". c None",
"# c #000000",
"a c #ffffff",
"................",
"................",
".......#........",
"......#a#.......",
".....#aaa#......",
"....#aaaaa#.....",
"...#aaaaaaa#....",
"..#aaaaaaaaa#...",
".#.aaaaaaaaaa#..",
".#####aaa#####..",
".....#aaa#......",
".....#aaa#......",
".....#aaa#......",
".....#####......",
"................",
"................"};
